<svg width="380" height="49" viewBox="0 0 380 49" fill="none" xmlns="http://www.w3.org/2000/svg">
<path d="M85.3708 21.5603V18.8191H73.8359V21.5603H77.778V30.691H81.4082V21.5603H85.3708ZM98.01 30.691L96.7727 26.9231L96.609 26.5094L96.4403 26.1605L96.3483 25.9961L96.2511 25.8615L96.1335 25.7219L96.0159 25.6073L95.8728 25.4927L95.7296 25.3781L95.5864 25.3083L95.4228 25.2136L95.2337 25.1438L95.0445 25.074L94.8297 25.0292L94.615 24.9843L94.9218 24.9145L95.2081 24.8198L95.4944 24.7301L95.7552 24.6105L96.0159 24.4959L96.2511 24.3563L96.4659 24.1968L96.6551 24.0124L96.8442 23.828L97.013 23.6187L97.1561 23.3894L97.2737 23.1552L97.3658 22.901L97.4373 22.6269L97.4629 22.3229V21.9989V21.7696V21.5603L97.4169 21.351L97.3913 21.1466L97.3197 20.9622L97.2482 20.7978L97.1766 20.6134L97.0845 20.4539L96.9874 20.3143L96.8954 20.1748L96.7727 20.0352L96.6295 19.8957L96.3687 19.6664L96.062 19.482L95.7296 19.3175L95.3768 19.158L95.0189 19.0683L94.6406 18.9736L94.2366 18.9038L93.8327 18.859L93.4083 18.8191H86.9149V30.691H90.4479V26.2054H91.4194H91.6597H91.8744H92.0432L92.2068 26.2503L92.3499 26.2951L92.4931 26.3449L92.5903 26.4147L92.7079 26.5044L92.7999 26.5991L92.8715 26.6888L92.943 26.8284L93.0146 26.943L93.1322 27.267L93.2754 27.6408L94.2264 30.6661L98.01 30.691ZM93.8583 22.4375V22.6717L93.8071 22.8811L93.7611 23.0655L93.6691 23.225L93.5719 23.3645L93.4543 23.4792L93.3112 23.5938L93.168 23.6885L93.0044 23.7583L92.8101 23.828L92.6465 23.8729H92.4318L92.0278 23.9177H91.6035H90.4377V21.032H91.675H92.0994L92.5033 21.0819H92.6925L92.8612 21.1267L93.0249 21.1765L93.1936 21.2463L93.3367 21.336L93.4748 21.4307L93.5719 21.5454L93.6691 21.6849L93.7611 21.8245L93.8071 22.0089L93.8583 22.1933V22.3976V22.4375ZM102.944 30.691V18.8191H99.3394V30.691H102.944ZM115.875 27.3617V27.0626L115.829 26.7835L115.757 26.5294L115.685 26.2752L115.568 26.0459L115.425 25.8366L115.282 25.6522L115.118 25.4678L114.929 25.3083L114.714 25.1438L114.474 25.0043L114.239 24.8896L114.003 24.7949L113.717 24.7052L113.456 24.6354L113.17 24.5657L113.431 24.4959L113.691 24.4261L113.952 24.3364L114.192 24.2218L114.407 24.0822L114.596 23.9427L114.786 23.8031L114.949 23.6187L115.118 23.4343L115.236 23.2499L115.353 23.0406L115.45 22.8113L115.522 22.5571L115.568 22.3029L115.593 22.0487V21.7447V21.5404V21.351L115.568 21.1466L115.522 20.9622L115.471 20.7978L115.399 20.6383L115.333 20.4738L115.261 20.3143L115.072 20.0601L114.832 19.8059L114.571 19.5966L114.31 19.4122L114.003 19.2727L113.671 19.1331L113.339 19.0434L112.981 18.9487L112.623 18.8789L112.244 18.8341L111.866 18.8091H105.27V30.691H111.406H111.856H112.306L112.735 30.6212L113.16 30.5514L113.564 30.4617L113.968 30.3172L114.32 30.1577L114.489 30.063L114.658 29.9733L114.796 29.8587L114.965 29.7391L115.082 29.6045L115.225 29.4649L115.343 29.3254L115.44 29.141L115.532 28.9765L115.629 28.7921L115.701 28.5877L115.772 28.3784L115.818 28.1691L115.844 27.9149V27.6856V27.4065L115.875 27.3617ZM112.055 22.2332V22.4375L112.009 22.6468L111.958 22.8113L111.866 22.9708L111.769 23.1103L111.651 23.225L111.534 23.3396L111.391 23.4343L111.227 23.5041L111.058 23.5738L110.895 23.6187L110.705 23.6636L110.348 23.7084H109.969H108.732V20.8127H110.133L110.491 20.8376L110.823 20.8825L110.987 20.9273L111.155 20.9772L111.299 21.047L111.462 21.1167L111.58 21.2065L111.697 21.3211L111.795 21.4357L111.887 21.5553L111.958 21.7148L112.009 21.8793L112.055 22.0637V22.2481V22.2332ZM112.27 27.1324L112.244 27.3617L112.198 27.571L112.147 27.7554L112.055 27.9199L111.938 28.0545L111.82 28.1691L111.677 28.2837L111.508 28.3784L111.345 28.4731L111.155 28.5429L110.966 28.5877L110.772 28.6326L110.373 28.6824H109.969H108.732V25.5575H109.944H110.373L110.772 25.6023L110.966 25.6273L111.176 25.6771L111.345 25.7419L111.534 25.8117L111.677 25.9064L111.82 26.021L111.958 26.1605L112.055 26.2951L112.147 26.4596L112.224 26.644V26.8782L112.25 27.1075L112.27 27.1324ZM128.453 26.021V18.8191H124.843V26.32V26.5543V26.7835L124.797 26.9929L124.725 27.2022L124.654 27.3866L124.562 27.571L124.439 27.7554L124.296 27.895L124.153 28.0345L123.989 28.1691L123.8 28.2638L123.611 28.3336L123.37 28.4033L123.135 28.4482H122.552L122.317 28.4033L122.102 28.3336L121.887 28.2638L121.724 28.1691L121.555 28.0345L121.412 27.895L121.294 27.7554L121.177 27.571L121.085 27.3866L121.013 27.2022L120.962 26.9929L120.916 26.7835L120.87 26.5543V26.32V26.0908V18.8191H117.291V26.5094L117.317 26.7835V27.0826L117.363 27.3417L117.434 27.6159L117.506 27.8451L117.577 28.1043L117.695 28.3336L117.787 28.5429L117.91 28.7472L118.048 28.9566L118.191 29.141L118.334 29.3304L118.503 29.4899L118.692 29.6543L118.856 29.7889L119.045 29.9284L119.259 30.068L119.474 30.1826L119.689 30.2723L120.139 30.4817L120.65 30.6212L121.161 30.7608L121.709 30.8305L122.276 30.8754L122.844 30.9003L123.416 30.8754L123.984 30.8305L124.531 30.7358L125.042 30.5963L125.553 30.4368L126.024 30.2275L126.239 30.1129L126.453 29.9783L126.668 29.8587L126.857 29.6942L127.046 29.5347L127.236 29.3702L127.404 29.2107L127.542 29.0263L127.711 28.817L127.829 28.6077L127.972 28.4033L128.069 28.1691L128.187 27.9398L128.258 27.7106L128.35 27.4564L128.401 27.1773L128.447 26.9231L128.493 26.6241V26.3449V26.021H128.453ZM142.493 30.691V18.8191H139.358V28.0545L135.795 18.8191H130.477V30.691H133.606V21.4905L137.145 30.691H142.493ZM157.586 30.691L153.041 18.8191H148.204L143.715 30.701H147.294L148.24 27.9299H152.867L153.838 30.701L157.586 30.691ZM152.207 25.6273H148.884L150.571 20.8675L152.207 25.6273ZM167.914 30.691V27.9647H162.433V18.8191H158.854V30.691H167.914ZM188.632 24.7999V24.4311V24.0573L188.581 23.7333L188.535 23.3894L188.489 23.0655L188.417 22.7664L188.32 22.4624L188.228 22.1883L188.131 21.9092L188.013 21.655L187.87 21.4008L187.727 21.1716L187.563 20.9373L187.395 20.7081L187.205 20.5236L186.975 20.3143L186.786 20.1548L186.571 19.9704L186.336 19.8309L186.096 19.6664L185.835 19.5318L185.574 19.4122L185.314 19.2976L185.032 19.2079L184.746 19.1132L184.439 19.0434L184.127 18.9736L183.795 18.9288L183.463 18.8839H183.11L182.752 18.859H176.934V30.691H182.558H182.916H183.248L183.606 30.6412L183.913 30.5963L184.245 30.5265L184.552 30.4617L184.859 30.367L185.145 30.2723L185.431 30.1577L185.692 30.0431L185.953 29.9035L186.188 29.7391L186.428 29.6045L186.664 29.4151L186.878 29.2357L187.093 29.0513L187.282 28.8419L187.446 28.6326L187.635 28.4033L187.778 28.1691L187.921 27.9149L188.064 27.6607L188.182 27.3866L188.279 27.1075L188.371 26.8035L188.443 26.5044L188.514 26.1855L188.56 25.8615V25.5126L188.586 25.1637V24.8198L188.632 24.7999ZM184.859 24.7999V25.1936L184.833 25.5625L184.762 25.9313L184.69 26.2802L184.572 26.6041L184.429 26.9032L184.266 27.1823L184.076 27.4315L183.862 27.6408L183.626 27.8501L183.34 28.0146L183.054 28.1741L182.721 28.2887L182.369 28.3585L181.965 28.4033H181.561H180.564V21.1217H182.2L182.578 21.1915L182.885 21.3111L183.217 21.4257L183.478 21.5852L183.739 21.7696L183.954 21.979L184.168 22.2332L184.332 22.4873L184.475 22.7664L184.593 23.0655L184.69 23.3894L184.762 23.7333L184.808 24.0822L184.833 24.4311V24.7999H184.859ZM199.313 30.7159V28.4033H193.546V25.8366H198.955V23.5489H193.546V21.1217H199.17V18.8191H190.013V30.691L199.313 30.7159ZM217.556 30.4418L217.464 27.9897L217.152 28.1043L216.845 28.2189L216.539 28.2887L216.206 28.3585L215.894 28.4033L215.567 28.4532H215.235H214.498L214.069 28.4083L213.691 28.3136L213.333 28.199L213 28.0594L212.694 27.9L212.407 27.7155L212.146 27.4813L211.911 27.2271L211.697 26.953L211.518 26.644L211.374 26.32L211.257 25.9761L211.185 25.5824L211.134 25.1887V24.775V24.3563L211.185 23.9676L211.277 23.5938L211.4 23.2499L211.538 22.9259L211.727 22.602L211.942 22.3229L212.182 22.0687L212.443 21.8643L212.75 21.655L213.057 21.4706L213.414 21.3311L213.767 21.2164L214.151 21.1466L214.555 21.1018H214.979H215.291L215.598 21.1466L215.904 21.1716L216.216 21.2413L216.83 21.3759L217.403 21.5653L217.52 19.0733L216.738 18.9088L215.93 18.7743L215.526 18.7244H215.122L214.718 18.6995H214.314H213.962L213.629 18.7244H213.271L212.939 18.7743L212.607 18.8191L212.274 18.9088L211.968 18.9786L211.635 19.0733L211.328 19.1879L211.042 19.3026L210.735 19.4421L210.469 19.5817L210.188 19.7412L209.927 19.9056L209.667 20.09L209.426 20.2994L209.191 20.4838L208.976 20.713L208.762 20.9224L208.552 21.1765L208.383 21.4058L208.194 21.66L208.051 21.9391L207.908 22.2182L207.77 22.4923L207.673 22.7914L207.581 23.1153L207.483 23.4193L207.432 23.7632L207.386 24.0872V24.4361L207.361 24.8049L207.386 25.1737V25.5425L207.412 25.8914L207.483 26.2353L207.555 26.5593L207.647 26.8832L207.744 27.1872L207.862 27.4863L208.005 27.7604L208.148 28.0196L208.312 28.2937L208.501 28.523L208.69 28.7572L208.884 28.9865L209.094 29.1958L209.334 29.4001L209.57 29.5895L209.83 29.749L210.091 29.9135L210.352 30.073L210.638 30.2125L210.924 30.3272L211.231 30.4468L211.538 30.5365L211.87 30.6262L212.182 30.7209L212.54 30.7807L212.873 30.8256L213.23 30.8754H213.588L213.941 30.9003H214.723L215.127 30.8754L215.557 30.8305L215.961 30.7807L216.36 30.7109L216.763 30.6461L217.167 30.5315L217.546 30.4169L217.556 30.4418ZM230.891 24.7999V24.4311V24.0822L230.865 23.7333L230.819 23.3894L230.747 23.0655L230.676 22.7664L230.584 22.4624L230.487 22.1634L230.369 21.8893L230.246 21.6351L230.108 21.356L229.965 21.1267L229.802 20.8925L229.633 20.6632L229.444 20.4539L229.254 20.2445L229.04 20.0601L228.799 19.8757L228.59 19.7162L228.329 19.5518L228.068 19.4122L227.807 19.2976L227.521 19.158L227.235 19.0683L226.954 18.9736L226.642 18.8839L226.309 18.8141L225.977 18.7693L225.645 18.7194L225.292 18.6746H224.934H224.556H224.198L223.845 18.6995H223.487L223.155 18.7493L222.822 18.7942L222.516 18.8839L222.204 18.9537L221.897 19.0484L221.611 19.163L221.35 19.2776L221.069 19.4172L220.828 19.5567L220.568 19.7162L220.332 19.8807L220.118 20.0651L219.903 20.2744L219.714 20.4589L219.524 20.6881L219.335 20.8974L219.192 21.1516L219.029 21.3809L218.885 21.6351L218.763 21.9142L218.645 22.1933L218.553 22.4674L218.456 22.7664L218.384 23.0904L218.313 23.3944L218.267 23.7383L218.241 24.0623V24.4112V25.1239V25.4977L218.267 25.8416L218.313 26.1655L218.384 26.4895L218.456 26.7885L218.527 27.0876L218.645 27.3916L218.742 27.6707L218.885 27.9448L219.003 28.199L219.167 28.4532L219.335 28.6874L219.499 28.8918L219.688 29.126L219.882 29.3104L220.097 29.4948L220.307 29.6792L220.542 29.8387L220.782 30.0032L221.043 30.1378L221.304 30.2773L221.59 30.3969L221.871 30.5116L222.183 30.6013L222.49 30.6711L222.797 30.7408L223.129 30.8106L223.487 30.8604H223.819L224.198 30.8854H224.934L225.292 30.8604H225.624L225.977 30.8106L226.309 30.7408L226.621 30.6711L226.928 30.5813L227.235 30.4866L227.521 30.3969L227.782 30.2574L228.068 30.1378L228.329 29.9833L228.564 29.8387L228.799 29.6593L229.014 29.4948L229.229 29.2855L229.418 29.1011L229.607 28.8718L229.802 28.6625L229.965 28.4332L230.108 28.1741L230.246 27.9249L230.369 27.6458L230.487 27.3667L230.584 27.0876L230.676 26.7885L230.747 26.4646L230.819 26.1456L230.865 25.8216L230.891 25.4727V25.1239V24.7999ZM227.143 24.7999V25.099V25.4478L227.092 25.7718L227.046 26.0957L226.974 26.4147L226.902 26.7387L226.785 27.0427L226.667 27.3417L226.499 27.5959L226.309 27.8501L226.1 28.0794L225.859 28.2688L225.742 28.3336L225.599 28.4033L225.43 28.4731L225.292 28.518L225.123 28.5678L224.934 28.5927H224.745H224.366H224.198L224.009 28.5678L223.865 28.518L223.702 28.4731L223.559 28.4033L223.415 28.3336L223.298 28.2439L223.058 28.0594L222.848 27.8252L222.659 27.571L222.49 27.3168L222.372 27.0178L222.255 26.7187L222.158 26.3948L222.086 26.0708L222.04 25.7469L222.014 25.4229V25.099L221.989 24.7999L222.014 24.476V24.1769L222.04 23.853L222.086 23.5041L222.158 23.1801L222.255 22.8811L222.347 22.5571L222.49 22.278L222.659 22.0039L222.822 21.7497L223.037 21.5155L223.277 21.3111L223.421 21.2214L223.564 21.1516L223.707 21.0819L223.85 21.037L224.014 20.9872H224.203H224.372H224.75H224.939H225.128L225.297 21.037L225.435 21.0819L225.604 21.1516L225.747 21.2214L225.834 21.3111L226.074 21.4955L226.284 21.7049L226.473 21.959L226.642 22.2381L226.759 22.5123L226.877 22.8163L226.948 23.1402L227.02 23.4592L227.066 23.7832L227.117 24.1321V24.456V24.78L227.143 24.7999ZM244.302 30.7159V18.8191H241.173V28.0545L237.594 18.8191H232.276V30.691H235.431V21.4905L238.943 30.691L244.302 30.7159ZM257.207 21.5603V18.8191H245.677V21.5603H249.614V30.691H253.244V21.5603H257.207ZM269.355 30.691L264.825 18.8191H259.983L255.489 30.691H259.027L259.999 27.9199H264.626L265.572 30.691H269.355ZM263.971 25.6273H260.674L262.356 20.8675L263.971 25.6273ZM279.776 27.1225V26.7736L279.75 26.4297L279.678 26.1306L279.586 25.8515L279.469 25.5724L279.346 25.3432L279.182 25.1139L278.993 24.9046L278.799 24.7202L278.564 24.5557L278.329 24.3962L278.068 24.2367L277.781 24.1171L277.495 23.9825L277.188 23.8629L276.856 23.7732L275.501 23.3546L275.245 23.2648L274.918 23.1552L274.611 23.0406L274.3 22.9259L274.162 22.8312L274.018 22.7615L273.896 22.6717L273.804 22.5571L273.706 22.4624L273.64 22.3229L273.614 22.2082V22.0687V21.8843L273.66 21.7248L273.732 21.5852L273.829 21.4706L273.967 21.351L274.11 21.2613L274.254 21.1915L274.443 21.1217L274.801 21.0071L275.179 20.9622L275.562 20.9124H276.273L276.672 20.9622H277.076L277.48 21.032L277.884 21.1018L278.262 21.1965L278.646 21.3111L279.024 21.4507L279.121 18.9985L278.692 18.9088L278.242 18.8391L277.812 18.7693L277.362 18.6995L276.912 18.6546L276.483 18.6297H276.033H275.123H274.647L274.172 18.6746L273.696 18.7444L273.226 18.859L272.75 18.9786L272.321 19.1381L271.896 19.3225L271.682 19.4172L271.493 19.5318L271.303 19.6714L271.135 19.786L270.971 19.9455L270.828 20.0851L270.685 20.2495L270.542 20.4339L270.424 20.6183L270.317 20.8127L270.225 21.022L270.153 21.2264L270.081 21.4606L270.035 21.7148L270.01 21.969V22.5571L270.056 22.8562L270.107 23.1353L270.199 23.4094L270.296 23.6636L270.439 23.8978L270.582 24.1022L270.746 24.3115L270.935 24.4959L271.15 24.6803L271.36 24.8448L271.6 25.0043L271.861 25.1438L272.121 25.2584L272.408 25.3781L272.715 25.4678L273.972 25.8814L274.279 25.9761L274.611 26.0908L274.969 26.2303L275.327 26.3898L275.491 26.4845L275.66 26.5792L275.798 26.6689L275.941 26.7935L276.033 26.9131L276.104 27.0477L276.15 27.1872L276.176 27.3268L276.15 27.5112V27.6757L276.079 27.8352L275.982 27.9747L275.89 28.0893L275.747 28.1791L275.603 28.2738L275.46 28.3685L275.297 28.4382L275.128 28.4831L274.964 28.5279H274.77L274.417 28.5728H273.589H273.078L272.566 28.498L272.055 28.4332L271.579 28.3136L271.109 28.199L270.634 28.0395L270.184 27.8501L270.086 30.372L270.598 30.4866L271.145 30.6013L271.692 30.696L272.234 30.7857L272.781 30.8355L273.328 30.8804L273.87 30.9053H274.893L275.404 30.8604L275.874 30.8106L276.324 30.7159L276.8 30.6013L277.229 30.4617L277.659 30.3022L278.037 30.0979L278.226 29.9833L278.416 29.8637L278.584 29.7241L278.748 29.5845L278.891 29.45L279.034 29.2855L279.172 29.1011L279.295 28.9366L279.387 28.7522L279.484 28.5479L279.576 28.3385L279.627 28.1093L279.694 27.875V27.6458L279.719 27.3916V27.1125L279.776 27.1225ZM299.972 24.7999V24.4311V24.0573L299.921 23.7333L299.875 23.3894L299.829 23.0655L299.757 22.7664L299.66 22.4624L299.568 22.1883L299.471 21.9092L299.353 21.655L299.21 21.4008L299.067 21.1716L298.903 20.9373L298.734 20.7081L298.545 20.5236L298.356 20.3143L298.167 20.1548L297.952 19.9704L297.717 19.8309L297.477 19.6664L297.221 19.5318L296.955 19.4122L296.694 19.2976L296.413 19.2079L296.127 19.1132L295.82 19.0434L295.508 18.9736L295.176 18.9288L294.843 18.8839H294.491L294.133 18.859H288.289V30.691H293.913H294.271H294.603L294.961 30.6412L295.268 30.5963L295.6 30.5265L295.907 30.4617L296.214 30.367L296.5 30.2723L296.786 30.1577L297.047 30.0431L297.308 29.9035L297.543 29.7391L297.804 29.6045L298.019 29.4151L298.233 29.2357L298.448 29.0513L298.637 28.8419L298.801 28.6326L298.995 28.4033L299.133 28.1691L299.276 27.9149L299.419 27.6607L299.537 27.3866L299.634 27.1075L299.726 26.8035L299.798 26.5044L299.869 26.1855L299.915 25.8615L299.941 25.5126V25.1637V24.8198L299.972 24.7999ZM296.198 24.7999V25.1936L296.173 25.5625L296.101 25.9313L296.035 26.2802L295.912 26.6041L295.769 26.9032L295.605 27.1823L295.416 27.4315L295.201 27.6408L294.966 27.8501L294.68 28.0146L294.393 28.1741L294.061 28.2887L293.708 28.3585L293.304 28.4033H292.9H291.903V21.1217H293.54L293.918 21.1915L294.25 21.2862L294.583 21.4008L294.843 21.5603L295.104 21.7447L295.319 21.9541L295.534 22.2082L295.697 22.4624L295.84 22.7415L295.958 23.0406L296.055 23.3645L296.127 23.7084L296.173 24.0573L296.198 24.4062V24.775V24.7999ZM313.69 30.7159L309.175 18.8191H304.313L299.829 30.701H303.408L304.379 27.9299H308.981L309.932 30.701L313.69 30.7159ZM308.316 25.6273H305.018L306.705 20.8675L308.316 25.6273ZM332.26 26.021V18.8191H328.681V26.0908V26.32V26.5543V26.7835L328.635 26.9929L328.563 27.2022L328.492 27.3866L328.395 27.571L328.277 27.7554L328.159 27.895L328.016 28.0345L327.853 28.1691L327.582 28.2887L327.372 28.3585L327.157 28.4283L326.897 28.4731H326.385L326.124 28.4283L325.91 28.3585L325.721 28.2887L325.531 28.194L325.363 28.0594L325.225 27.9199L325.102 27.7803L324.984 27.5959L324.913 27.4115L324.821 27.2271L324.77 27.0178L324.724 26.8085V26.5792V26.3449V18.8191H321.114V26.5094V26.7835L321.139 27.0826L321.211 27.3417L321.257 27.6159L321.329 27.8451L321.421 28.1043L321.518 28.3336L321.635 28.5429L321.753 28.7472L321.876 28.9566L322.014 29.141L322.182 29.3304L322.346 29.4899L322.515 29.6543L322.704 29.7889L322.893 29.9284L323.082 30.068L323.297 30.1826L323.491 30.2823L323.941 30.4916L324.453 30.6312L324.964 30.7707L325.475 30.8405L326.048 30.8854L326.615 30.9103L327.208 30.8854L327.756 30.8405L328.303 30.7458L328.814 30.6063L329.325 30.4468L329.775 30.2374L330.01 30.1228L330.225 29.9883L330.414 29.8686L330.629 29.7042L330.793 29.5447L330.982 29.3802L331.151 29.2207L331.314 29.0363L331.457 28.827L331.6 28.6177L331.718 28.4133L331.836 28.1791L331.933 27.9498L332.025 27.7205L332.096 27.4663L332.168 27.1872L332.214 26.9331L332.24 26.634V26.3549V26.031L332.26 26.021ZM346.305 30.691V18.8191H343.176V28.0545L339.597 18.8091H334.3V30.691H337.455V21.4905L340.967 30.691H346.305ZM352.073 30.691V18.8191H348.494V30.691H352.073ZM363.674 15.2057H362.273L362.227 15.3702L362.181 15.4848L362.109 15.5995L362.012 15.7141L361.92 15.7839L361.803 15.8536L361.66 15.8786H361.516L361.204 15.8337L360.898 15.7639L360.565 15.6742L360.233 15.5347L359.88 15.415L359.522 15.3253L359.333 15.2805L359.144 15.2306H358.929H358.74H358.505L358.29 15.2805L358.075 15.3253L357.886 15.415L357.717 15.5347L357.554 15.6742L357.411 15.8088L357.293 15.9733L357.17 16.1577L357.078 16.3421L357.007 16.5265L356.935 16.7358L356.818 17.1495L356.772 17.5681H358.147L358.172 17.4286L358.259 17.3239L358.331 17.2093L358.428 17.0897L358.546 17.0199L358.663 16.9551L358.806 16.9053H358.95H359.256L359.543 16.975L359.85 17.0897L360.182 17.2043L360.494 17.3189L360.826 17.4385L361.015 17.4834H361.204H361.394H361.823L362.033 17.4385L362.247 17.3688L362.437 17.2741L362.626 17.1594L362.795 17.0448L362.958 16.8853L363.101 16.7209L363.219 16.5614L363.337 16.372L363.434 16.1876L363.505 15.9832L363.577 15.7739L363.623 15.5646L363.674 15.3552V15.126V15.2057ZM367.187 30.691L362.631 18.8191H357.789L353.305 30.701H356.884L357.861 27.9299H362.462L363.413 30.701L367.187 30.691ZM361.803 25.6273H358.479L360.161 20.8675L361.803 25.6273ZM380 24.7999V24.4311V24.0822L379.954 23.7333L379.908 23.3894L379.862 23.0655L379.785 22.7664L379.693 22.4624L379.596 22.1634L379.478 21.8893L379.361 21.6351L379.217 21.356L379.074 21.1267L378.911 20.8925L378.721 20.6632L378.553 20.4539L378.338 20.2445L378.128 20.0601L377.914 19.8757L377.678 19.7162L377.438 19.5518L377.177 19.4122L376.917 19.2976L376.63 19.158L376.349 19.0683L376.037 18.9736L375.73 18.8839L375.424 18.8141L375.091 18.7693L374.733 18.7194L374.401 18.6746H374.023H373.665H373.286L372.928 18.6995H372.596L372.264 18.7493L371.937 18.7942L371.604 18.8839L371.292 18.9537L371.011 19.0484L370.725 19.163L370.438 19.2776L370.178 19.4172L369.917 19.5567L369.677 19.7162L369.441 19.8807L369.227 20.0651L369.017 20.2744L368.802 20.4589L368.613 20.6881L368.444 20.8974L368.281 21.1516L368.138 21.3809L367.994 21.6351L367.851 21.9142L367.759 22.1933L367.642 22.4674L367.57 22.7664L367.473 23.0904L367.427 23.3944L367.381 23.7383L367.33 24.0623L367.304 24.4112V25.1239L367.33 25.4977L367.381 25.8416L367.427 26.1655L367.473 26.4895L367.544 26.7885L367.642 27.0876L367.734 27.3916L367.851 27.6707L367.969 27.9448L368.112 28.199L368.255 28.4532L368.424 28.6874L368.588 28.8918L368.777 29.126L368.991 29.3104L369.181 29.4948L369.421 29.6792L369.656 29.8387L369.891 30.0032L370.152 30.1378L370.413 30.2773L370.679 30.3969L370.986 30.5116L371.267 30.6013L371.579 30.6711L371.911 30.7408L372.243 30.8106L372.576 30.8604H372.928L373.286 30.8854H374.023L374.381 30.8604H374.733L375.066 30.8106L375.398 30.7408L375.73 30.6711L376.037 30.5813L376.323 30.4866L376.61 30.3969L376.896 30.2574L377.157 30.1378L377.418 29.9833L377.653 29.8387L377.888 29.6593L378.128 29.4948L378.338 29.2855L378.532 29.1011L378.721 28.8718L378.885 28.6625L379.054 28.4332L379.217 28.1741L379.335 27.9249L379.478 27.6458L379.596 27.3667L379.693 27.0876L379.785 26.7885L379.862 26.4646L379.908 26.1456L379.954 25.8216L380 25.4727V25.1239V24.7999ZM376.226 24.7999V25.099V25.4478V25.7718L376.18 26.0957L376.109 26.4147L376.012 26.7387L375.914 27.0427L375.776 27.3417L375.633 27.5959L375.444 27.8501L375.229 28.0794L374.989 28.2688L374.851 28.3336L374.708 28.4033L374.565 28.4731L374.401 28.518L374.232 28.5678L374.069 28.5927H373.879H373.496H373.307L373.138 28.5678L372.975 28.518L372.831 28.4731L372.688 28.4033L372.545 28.3336L372.407 28.2439L372.167 28.0594L371.911 27.7903L371.742 27.5361L371.579 27.2819L371.436 26.9829L371.338 26.6839L371.241 26.3599L371.175 26.0359L371.124 25.712L371.078 25.388V25.0641V24.451V24.152L371.124 23.828L371.175 23.4792L371.241 23.1552L371.318 22.8562L371.436 22.5322L371.579 22.2531L371.717 21.979L371.911 21.7248L372.121 21.4905L372.361 21.3061L372.479 21.2164L372.622 21.1466L372.765 21.0769L372.928 21.032L373.092 20.9822H373.261H373.45H373.833H374.023H374.186L374.355 21.032L374.519 21.0769L374.662 21.1466L374.805 21.2164L374.943 21.3061L375.183 21.4905L375.398 21.6999L375.587 21.9541L375.73 22.2332L375.868 22.5073L375.966 22.8113L376.063 23.1353L376.134 23.4542L376.18 23.7782V24.1271V24.451V24.7999H376.226Z" fill="#26145F"/>
<path fill-rule="evenodd" clip-rule="evenodd" d="M13.0224 35.6104L13.4008 36.657L13.8558 37.6239L14.3978 38.5509L15.0165 39.4281L15.7067 40.2604L16.4634 41.023L17.3173 41.7157L18.2223 42.3637L19.1682 42.9418L20.1908 43.4701L21.2543 43.9336L22.374 44.3274L23.5142 44.6513L24.7209 44.9055L25.9531 45.0899L27.2109 45.2045L28.4942 45.2295L29.8236 45.2045L31.153 45.0899L32.4823 44.9055L33.8577 44.6264L35.2075 44.2775L36.5625 43.8389L37.9379 43.3355L39.2877 42.7325L40.6426 42.0397L41.972 41.2522L43.2758 40.375L44.5591 39.4281L45.8374 38.3615L47.0491 37.2102L48.2609 35.9592L47.0236 37.5093L45.7198 38.9646L44.3444 40.3053L42.8974 41.5513L41.4249 42.6876L39.8859 43.7243L38.3162 44.6713L36.7261 45.5086L35.0899 46.2462L33.4538 46.8692L31.7921 47.4224L30.1304 47.861L28.4687 48.185L26.8069 48.4392L25.1708 48.5538L23.5347 48.6036L21.9445 48.5339L20.38 48.3744L18.8359 48.1152L17.3633 47.7464L15.9164 47.2879L14.5665 46.7296L13.2372 46.0618L12.0049 45.2992L10.8392 44.442L9.7757 43.4701L8.79912 42.4085L7.89924 41.2522L7.11696 40.0013L6.42671 38.6406L5.87963 37.1853L5.42969 35.6104H13.0224Z" fill="#F8C300"/>
<path fill-rule="evenodd" clip-rule="evenodd" d="M54.0746 14.3985H46.5535L46.5279 13.2422L46.4103 12.1557L46.124 11.139L45.7712 10.1671L45.2701 9.28994L44.677 8.45761L43.9867 7.69506L43.184 7.00228L42.3046 6.39922L41.3536 5.846L40.3361 5.38248L39.2215 4.96881L38.0557 4.64485L36.8235 4.41061L35.5401 4.2262L34.2363 4.15642L32.861 4.13649L31.46 4.20626L30.0386 4.36575L28.5661 4.6L27.0935 4.92396L25.621 5.33763L24.128 5.82108L22.635 6.39922L21.1625 7.09199L19.69 7.85953L18.2226 8.71179L16.7961 9.65875L15.3951 10.7004L14.0197 11.8318L12.6903 13.0778L11.4121 14.3985L12.7159 12.7787L14.0913 11.2786L15.5638 9.86808L17.0824 8.5523L18.6725 7.34618L20.3342 6.23973L22.0164 5.24792L23.7497 4.34581L25.483 3.53342L27.2623 2.84065L29.0416 2.2625L30.8209 1.77906L32.6002 1.38532L34.3539 1.10622L36.1128 0.946729L37.8205 0.876953L39.4822 0.921809L41.0928 1.06136L42.6625 1.31554L44.1555 1.68436L45.5769 2.14787L46.9318 2.7011L48.1896 3.39387L49.3502 4.18134L50.3933 5.08344L51.3187 6.07526L52.1521 7.18669L52.8168 8.41275L53.3588 9.75345L53.7627 11.1839L54.003 12.7339L54.0746 14.3985Z" fill="#007A37"/>
<path fill-rule="evenodd" clip-rule="evenodd" d="M39.0269 14.3984H46.5532L45.5306 25.1688V25.5377V25.8816L45.5817 26.2304L45.6738 26.5544L45.8169 26.8783L45.9857 27.1575L46.1748 27.4316L46.3845 27.6858L46.6248 27.92L46.906 28.1243L47.1923 28.3088L47.5042 28.4483L47.8365 28.5879L48.1893 28.6826L48.5677 28.7274H48.9512H49.3295L49.7079 28.6826L50.0658 28.5879L50.4442 28.4483L50.7765 28.3088L51.1088 28.1243L51.4156 27.92L51.7019 27.6858L51.9627 27.4316L52.1979 27.1575L52.4126 26.8783L52.6018 26.5544L52.7705 26.2304L52.8881 25.8816L52.9802 25.5377L53.0313 25.1688L54.0283 14.3984H61.5495L60.5269 25.1439V25.2336V25.7968L60.4298 26.3251L60.2917 26.8584L60.1741 27.3867L60.0054 27.8851L59.7957 28.3835L59.581 28.8819L59.3202 29.3803L59.0595 29.8438L58.7732 30.3073L58.4408 30.7659L58.1085 31.1845L57.7506 31.6032L57.3978 32.0168L56.9938 32.4106L56.5899 32.7794L56.1604 33.1283L55.7361 33.4522L55.2861 33.7712L54.8106 34.0703L54.3351 34.3494L53.8238 34.6035L53.3125 34.8328L52.8012 35.0671L52.2541 35.2515L51.7428 35.4159L51.1958 35.5555L50.6282 35.6701L50.0811 35.7847L49.5136 35.8296L48.9461 35.8794H48.353H47.8059L47.2588 35.8545L46.7475 35.7847L46.2362 35.6901L45.7249 35.5754L45.2136 35.4359L44.7023 35.2764L44.2268 35.092L43.7769 34.9076L43.3014 34.6883L42.877 34.4341L42.4475 34.1799L42.0436 33.9058L41.6652 33.6018L41.2562 33.2728L40.8983 32.9289L40.5404 32.58L40.2336 32.2112L39.9268 31.8424L39.6405 31.4487L39.3797 31.03L39.1445 30.6163L38.9042 30.1778L38.6997 29.7441L38.5565 29.2856L38.3878 28.8221L38.2702 28.3237L38.1526 27.8253L38.081 27.3269L38.035 26.8285V26.3301V25.8317L38.081 25.1838L38.1782 24.0773L38.2702 22.8513L38.3929 21.6501L38.5105 20.4241L38.6026 19.2229L38.6997 18.0268L38.8173 16.8256L38.9093 15.5996L39.0269 14.3984ZM13.9734 20.8477L13.7587 21.7448L13.5235 22.6469L13.3343 23.574L13.1349 24.4761L12.9457 25.3981L12.8026 26.3451L12.6696 27.292L12.5725 28.2141L12.5009 29.161L12.4549 30.113V31.035V31.962L12.5214 32.904L12.6696 33.7712L12.7412 34.2347L12.8077 34.6982L12.9304 35.1568L13.0224 35.5954H5.4297L5.35812 35.2066L5.28654 34.7929L5.21496 34.3743L5.14849 33.9556L5.07691 33.0784L5.02578 32.2013V31.3141V30.3921L5.0718 29.465L5.14338 28.5181L5.24052 27.5711L5.35812 26.6242L5.50128 25.6523L5.64445 24.6555L5.97679 22.7616L6.3347 20.8477H0.352539L1.49273 14.3984H21.1878L20.472 18.5351L20.7123 18.2162L20.9731 17.8922L21.2594 17.5882L21.5406 17.2642L21.8269 16.9652L22.1133 16.6911L22.42 16.387L22.7524 16.1129L23.0592 15.8587L23.3915 15.6046L23.7494 15.3504L24.0818 15.0962L24.4346 14.8619L24.7925 14.6526L25.1708 14.4483L25.5543 14.2389L25.9326 14.0545L26.311 13.8701L26.6894 13.7057L27.0933 13.5462L27.4972 13.4066L27.9011 13.2671L28.3051 13.1275L28.7294 13.0378L29.1589 12.9232L29.5628 12.8534L29.9872 12.7587L30.4423 12.7138L30.8667 12.669L31.2961 12.6191H31.7461H32.196H32.9527L33.7146 12.6889L34.4508 12.7836L35.1615 12.9232L35.8722 13.1076L36.5369 13.3119L37.2016 13.5711L37.8407 13.8701L37.2476 20.3144L37.038 20.1051L36.7977 19.8958L36.5369 19.7114L36.3017 19.527L36.0154 19.3675L35.7546 19.203L35.4683 19.0684L35.1615 18.9289L34.8548 18.8093L34.5429 18.7196L34.2361 18.6249L33.9037 18.5551L33.5867 18.5102L33.2544 18.4654H32.8965H32.5437H32.1858H31.833L31.4751 18.5102L31.1172 18.5551L30.7644 18.6498L30.4321 18.7445L30.0741 18.8342L29.7418 18.9488L29.435 19.0884L29.1027 19.2528L28.7959 19.4123L28.5096 19.5768L28.2028 19.7612L27.9165 19.9655L27.6557 20.1749L27.3694 20.4041L27.1342 20.6384L26.8734 20.8677L26.6331 21.1218L26.4235 21.4009L26.2087 21.6751L26.0196 21.9542L25.8304 22.2333L25.6617 22.5323L25.5185 22.8313L25.3753 23.1553L25.2577 23.4793L25.1401 23.8032L25.043 24.1272L24.9714 24.4761L24.8947 24.8L24.8487 25.124V25.4729V26.1656L24.8998 26.4896L24.9458 26.8136L25.0174 27.1375L25.089 27.4565L25.181 27.7605L25.2986 28.0596L25.4214 28.3387L25.5645 28.6128L25.7281 28.8919L25.8969 29.171L26.086 29.4252L26.2957 29.6544L26.5104 29.8837L26.7252 30.113L26.9604 30.3223L27.2007 30.5316L27.4614 30.716L27.7477 30.8805L28.029 31.04L28.3153 31.2045L28.6221 31.339L28.934 31.4586L29.2407 31.5484L29.5731 31.643L29.9054 31.7328L30.2378 31.7776L30.5906 31.8275H30.9485H31.8023L32.3136 31.7826L32.784 31.6929L33.2595 31.5982L33.7095 31.4586L34.1645 31.2992L34.6093 31.1297L35.0337 30.9204L35.4376 30.6911L35.8416 30.417L36.2199 30.1329L36.5778 29.8339L36.9102 29.5099L37.2425 29.166L37.5237 28.7972L37.81 28.4035L37.1249 35.7299L36.721 35.9592L36.3171 36.1885L35.8876 36.3778L35.4632 36.5623L35.0133 36.7467L34.5838 36.9061L34.1338 37.0457L33.6839 37.1853L33.2288 37.2999L32.7584 37.3946L32.2829 37.4843L31.833 37.5541L31.3217 37.6238L30.8462 37.6687L30.3758 37.6936H29.9003L29.2101 37.6687L28.5454 37.6238L27.9062 37.5541L27.2671 37.4394L26.6485 37.2999L26.0298 37.1404L25.4367 36.9311L24.8692 36.6968L24.3016 36.4676L23.7545 36.1885L23.2432 35.8944L22.7319 35.5455L22.2615 35.1966L21.786 34.8278L21.3157 34.4341L20.9168 34.0204L20.5129 33.5818L20.1346 33.1432L19.8022 32.6448L19.4648 32.1464L19.1836 31.648L18.9228 31.1147L18.662 30.5815L18.4473 30.0282L18.2786 29.4501L18.1149 28.8719L18.0076 28.2888L17.9104 27.6907L17.8644 27.0677V26.4447V25.7968L17.9155 25.1489L17.9616 24.5957L18.0536 24.0375L18.1763 23.4843L18.3143 22.9559L18.4831 22.4227L18.6723 21.8894L18.887 21.3561L19.1017 20.8577L13.9734 20.8477Z" fill="#26145F"/>
</svg>
